FEEL-FREE TEAM


...................................................
Genre:Animation | Adventure | Comedy | Family | Fantasy
Source Audio:Prism.Thank You!
Source video:TS ELEKTI4KA.Thank You!
Audio Language.: English
IMDB:http://www.imdb.com/title/tt0892791/
Encoder: Tony2
.................................................
General
Complete name : Shrek Forever After 2010 V2 TS H264 FEEL-FREE.mp4
Format : MPEG-4
Format profile : Base Media
Codec ID : isom
File size : 959 MiB
Duration : 1h 21mn
Overall bit rate : 1 637 Kbps
..................................................
Video
ID : 2
Format : AVC
Format/Info : Advanced Video Codec
Format profile : Baseline@L1.3
Format settings, CABAC : No
Format settings, ReFrames : 1 frame
Codec ID : avc1
Codec ID/Info : Advanced Video Coding
Duration : 1h 21mn
Bit rate mode : Variable
Bit rate : 1 504 Kbps
Width : 720 pixels
Height : 288 pixels
Display aspect ratio : 2.500
Frame rate mode : Constant
Frame rate : 25.000 fps
Resolution : 24 bits
Colorimetry : 4:2:0
Scan type : Progressive
Bits/(Pixel*Frame) : 0.290
Stream size : 881 MiB (92%)
Language : English
.................................................
Audio
ID : 1
Format : AAC
Format/Info : Advanced Audio Codec
Format version : Version 4
Format profile : LC
Format settings, SBR : No
Codec ID : 40
Duration : 1h 21mn
Bit rate mode : Constant
Bit rate : 128 Kbps
Channel(s) : 2 channels
Channel positions : L R
Sampling rate : 48.0 KHz
Resolution : 16 bits
Stream size : 74.9 MiB (8%)
Language : English
................................................
Plot:The further adventures of the giant green ogre, Shrek, living in the land of Far, Far Away.

 
http://img594.imageshack.us/img594/6730/262xriq.png 
http://img97.imageshack.us/img97/43/30nixl5.png 
http://img175.imageshack.us/img175/5665/334rog1.png 
http://img8.imageshack.us/img8/3793/21do9b4.png
